<svg xmlns="http://www.w3.org/2000/svg" xmlns:xlink="http://www.w3.org/1999/xlink" width="598" zoomAndPan="magnify"
    viewBox="0 0 448.5 323.999988" height="432" preserveAspectRatio="xMidYMid meet" version="1.0">
    <defs>
        <clipPath id="3ed0b8be08">
            <path d="M 0 0.179688 L 448 0.179688 L 448 323 L 0 323 Z M 0 0.179688 " clip-rule="nonzero" />
        </clipPath>
    </defs>
    <g clip-path="url(#3ed0b8be08)">
        <path fill="#264653"
            d="M 424.34375 65.695312 C 415 53.6875 447.527344 29.914062 447.527344 29.914062 C 436.585938 22.957031 406.957031 37.121094 403.476562 29.113281 C 400 21.101562 423.371094 0.132812 423.371094 0.132812 C 386.113281 6.542969 311.300781 79.351562 305.796875 76.640625 C 300.289062 73.925781 310.605469 65.625 310.605469 65.625 C 298.691406 65.625 299.015625 78.238281 299.015625 78.238281 L 295.410156 80.917969 C 311.566406 87.058594 296.152344 118.300781 290.332031 126.125 C 284.511719 133.949219 261.664062 148.785156 253.25 151.765625 C 244.835938 154.742188 231.515625 152.761719 229.777344 150.605469 C 228.039062 148.449219 226.171875 129.371094 227.644531 126.574219 C 229.117188 123.78125 236.59375 129.507812 236.59375 129.507812 C 236.988281 120.828125 230.308594 112.121094 230.308594 112.121094 C 239.664062 109.128906 239.792969 99.21875 239.792969 98.664062 C 239.503906 100.980469 235.644531 106.242188 233.789062 106.242188 C 231.933594 106.242188 231.25 96.507812 231.25 96.507812 C 230.449219 102.90625 223.136719 113.328125 218.429688 112.65625 C 213.722656 111.980469 206.835938 95.835938 206.835938 95.835938 C 204.625 98.570312 207.753906 107.425781 207.890625 107.84375 C 205.574219 106.894531 200.019531 100.507812 200.019531 100.507812 C 198.6875 106.300781 207.230469 113.859375 207.230469 113.859375 C 203.894531 116.257812 203.753906 129.21875 203.753906 129.21875 C 204.496094 128.019531 205.464844 127.042969 206.660156 126.292969 C 207.855469 125.539062 209.15625 125.089844 210.558594 124.941406 C 214.570312 124.28125 208.296875 152.125 208.296875 152.125 C 186.65625 157.917969 163.425781 139.90625 150.605469 124.941406 C 137.785156 109.976562 141.585938 85.53125 143.292969 83.316406 C 144.996094 81.101562 148.101562 82.015625 148.101562 82.015625 C 147.800781 80.011719 142.304688 77.382812 142.304688 77.382812 C 141.9375 69.035156 133.84375 66.949219 132.335938 66.613281 C 135.527344 67.402344 139.917969 75.816406 136.59375 77.289062 C 133.265625 78.761719 125.882812 72.375 125.882812 72.375 C 86.722656 26.503906 14.683594 2.824219 14.683594 2.824219 C 63.261719 31.246094 0.179688 40.867188 0.179688 40.867188 C 41.910156 59.019531 1.257812 75.585938 1.257812 75.585938 C 46.652344 89.496094 0.179688 118.3125 0.179688 118.3125 C 88.128906 93.421875 40.382812 161.199219 39.59375 162.359375 C 88.453125 132.335938 96.601562 179.746094 96.601562 179.746094 C 109.953125 163.195312 119.296875 169.871094 140.128906 173.882812 C 160.957031 177.890625 204.195312 202.304688 204.195312 202.304688 C 204.195312 202.304688 202.964844 204.148438 201.457031 212.738281 C 199.953125 221.324219 205.5625 223.851562 205.261719 225.347656 C 204.960938 226.84375 199.359375 238.378906 201.457031 238.679688 C 203.558594 238.980469 204.867188 231.457031 204.160156 235.46875 C 203.453125 239.480469 207.265625 244.082031 206.269531 241.378906 C 205.273438 238.679688 207.070312 235.0625 207.253906 234.703125 C 206.316406 236.789062 210.558594 238.875 209.273438 239.480469 C 207.984375 240.082031 204.265625 253.703125 197.054688 263.042969 C 189.84375 272.386719 158.59375 280.675781 153.386719 288.546875 C 148.183594 296.417969 147.105469 321.929688 167.414062 322.867188 C 187.722656 323.808594 185.300781 305.769531 185.300781 305.769531 C 180.09375 319.679688 167.414062 322.867188 160.460938 309.109375 C 153.503906 295.351562 172.746094 284.40625 189.703125 278.671875 C 206.664062 272.933594 211.730469 259.832031 218.417969 248.53125 C 225.105469 237.230469 225.164062 213.480469 226.695312 213.6875 C 228.222656 213.894531 229.011719 218.148438 228.234375 220.363281 C 227.457031 222.578125 230.03125 226.160156 230.03125 226.160156 C 230.03125 226.160156 230.367188 234.4375 228.964844 235.769531 C 227.5625 237.101562 226.300781 242.445312 227.4375 242.515625 C 228.570312 242.585938 228.769531 239.78125 229.972656 239.847656 C 231.179688 239.917969 229.5 246.457031 230.4375 245.921875 C 231.375 245.390625 230.242188 242.851562 231.503906 242.851562 C 232.769531 242.851562 232.441406 247.664062 233.636719 246.792969 C 234.832031 245.921875 233.371094 240.046875 235.039062 240.046875 C 236.710938 240.046875 235.109375 246.863281 236.046875 246.457031 C 236.988281 246.050781 238.515625 245.191406 238.367188 241.308594 C 238.214844 237.425781 234.761719 226.355469 234.761719 226.355469 C 234.761719 226.355469 236.453125 228.464844 238.238281 221.347656 C 240.023438 214.230469 235.804688 203.324219 235.804688 203.324219 C 256.734375 192.558594 278.375 183.480469 300.71875 176.082031 C 338.378906 163.53125 347.1875 181.695312 347.1875 181.695312 C 355.664062 130.089844 403.988281 162.914062 404.871094 163.519531 C 404.523438 163.019531 393.335938 146.941406 389.394531 127.746094 C 385.382812 108.25 428.921875 112.78125 428.921875 112.78125 C 414.59375 86.238281 445.429688 73.125 447.015625 72.476562 C 446.019531 72.753906 433.328125 77.253906 424.34375 65.695312 Z M 210.988281 229.984375 C 209.828125 231.085938 210.789062 223.03125 210.082031 220.269531 C 209.375 217.511719 211.589844 212.761719 212.691406 212.65625 C 212.691406 212.65625 212.089844 228.882812 210.988281 229.984375 Z M 210.988281 229.984375 "
            fill-opacity="1" fill-rule="nonzero" />
        <path fill="#264653"
            d="M 424.34375 65.695312 C 415 53.6875 447.527344 29.914062 447.527344 29.914062 C 436.585938 22.957031 406.957031 37.121094 403.476562 29.113281 C 400 21.101562 423.371094 0.132812 423.371094 0.132812 C 386.113281 6.542969 311.300781 79.351562 305.796875 76.640625 C 300.289062 73.925781 310.605469 65.625 310.605469 65.625 C 298.691406 65.625 299.015625 78.238281 299.015625 78.238281 L 295.410156 80.917969 C 311.566406 87.058594 296.152344 118.300781 290.332031 126.125 C 284.511719 133.949219 261.664062 148.785156 253.25 151.765625 C 244.835938 154.742188 231.515625 152.761719 229.777344 150.605469 C 228.039062 148.449219 226.171875 129.371094 227.644531 126.574219 C 229.117188 123.78125 236.59375 129.507812 236.59375 129.507812 C 236.988281 120.828125 230.308594 112.121094 230.308594 112.121094 C 239.664062 109.128906 239.792969 99.21875 239.792969 98.664062 C 239.503906 100.980469 235.644531 106.242188 233.789062 106.242188 C 231.933594 106.242188 231.25 96.507812 231.25 96.507812 C 230.449219 102.90625 223.136719 113.328125 218.429688 112.65625 C 213.722656 111.980469 206.835938 95.835938 206.835938 95.835938 C 204.625 98.570312 207.753906 107.425781 207.890625 107.84375 C 205.574219 106.894531 200.019531 100.507812 200.019531 100.507812 C 198.6875 106.300781 207.230469 113.859375 207.230469 113.859375 C 203.894531 116.257812 203.753906 129.21875 203.753906 129.21875 C 204.496094 128.019531 205.464844 127.042969 206.660156 126.292969 C 207.855469 125.539062 209.15625 125.089844 210.558594 124.941406 C 214.570312 124.28125 208.296875 152.125 208.296875 152.125 C 186.65625 157.917969 163.425781 139.90625 150.605469 124.941406 C 137.785156 109.976562 141.585938 85.53125 143.292969 83.316406 C 144.996094 81.101562 148.101562 82.015625 148.101562 82.015625 C 147.800781 80.011719 142.304688 77.382812 142.304688 77.382812 C 141.9375 69.035156 133.84375 66.949219 132.335938 66.613281 C 135.527344 67.402344 139.917969 75.816406 136.59375 77.289062 C 133.265625 78.761719 125.882812 72.375 125.882812 72.375 C 86.722656 26.503906 14.683594 2.824219 14.683594 2.824219 C 63.261719 31.246094 0.179688 40.867188 0.179688 40.867188 C 41.910156 59.019531 1.257812 75.585938 1.257812 75.585938 C 46.652344 89.496094 0.179688 118.3125 0.179688 118.3125 C 88.128906 93.421875 40.382812 161.199219 39.59375 162.359375 C 88.453125 132.335938 96.601562 179.746094 96.601562 179.746094 C 109.953125 163.195312 119.296875 169.871094 140.128906 173.882812 C 160.957031 177.890625 204.195312 202.304688 204.195312 202.304688 C 204.195312 202.304688 202.964844 204.148438 201.457031 212.738281 C 199.953125 221.324219 205.5625 223.851562 205.261719 225.347656 C 204.960938 226.84375 199.359375 238.378906 201.457031 238.679688 C 203.558594 238.980469 204.867188 231.457031 204.160156 235.46875 C 203.453125 239.480469 207.265625 244.082031 206.269531 241.378906 C 205.273438 238.679688 207.070312 235.0625 207.253906 234.703125 C 206.316406 236.789062 210.558594 238.875 209.273438 239.480469 C 207.984375 240.082031 204.265625 253.703125 197.054688 263.042969 C 189.84375 272.386719 158.59375 280.675781 153.386719 288.546875 C 148.183594 296.417969 147.105469 321.929688 167.414062 322.867188 C 187.722656 323.808594 185.300781 305.769531 185.300781 305.769531 C 180.09375 319.679688 167.414062 322.867188 160.460938 309.109375 C 153.503906 295.351562 172.746094 284.40625 189.703125 278.671875 C 206.664062 272.933594 211.730469 259.832031 218.417969 248.53125 C 225.105469 237.230469 225.164062 213.480469 226.695312 213.6875 C 228.222656 213.894531 229.011719 218.148438 228.234375 220.363281 C 227.457031 222.578125 230.03125 226.160156 230.03125 226.160156 C 230.03125 226.160156 230.367188 234.4375 228.964844 235.769531 C 227.5625 237.101562 226.300781 242.445312 227.4375 242.515625 C 228.570312 242.585938 228.769531 239.78125 229.972656 239.847656 C 231.179688 239.917969 229.5 246.457031 230.4375 245.921875 C 231.375 245.390625 230.242188 242.851562 231.503906 242.851562 C 232.769531 242.851562 232.441406 247.664062 233.636719 246.792969 C 234.832031 245.921875 233.371094 240.046875 235.039062 240.046875 C 236.710938 240.046875 235.109375 246.863281 236.046875 246.457031 C 236.988281 246.050781 238.515625 245.191406 238.367188 241.308594 C 238.214844 237.425781 234.761719 226.355469 234.761719 226.355469 C 234.761719 226.355469 236.453125 228.464844 238.238281 221.347656 C 240.023438 214.230469 235.804688 203.324219 235.804688 203.324219 C 256.734375 192.558594 278.375 183.480469 300.71875 176.082031 C 338.378906 163.53125 347.1875 181.695312 347.1875 181.695312 C 355.664062 130.089844 403.988281 162.914062 404.871094 163.519531 C 404.523438 163.019531 393.335938 146.941406 389.394531 127.746094 C 385.382812 108.25 428.921875 112.78125 428.921875 112.78125 C 414.59375 86.238281 445.429688 73.125 447.015625 72.476562 C 446.019531 72.753906 433.328125 77.253906 424.34375 65.695312 Z M 210.988281 229.984375 C 209.828125 231.085938 210.789062 223.03125 210.082031 220.269531 C 209.375 217.511719 211.589844 212.761719 212.691406 212.65625 C 212.691406 212.65625 212.089844 228.882812 210.988281 229.984375 Z M 210.988281 229.984375 "
            fill-opacity="1" fill-rule="nonzero" />
    </g>
</svg>